<svg id="Layer_1" data-name="Layer 1" xmlns="http://www.w3.org/2000/svg" xmlns:xlink="http://www.w3.org/1999/xlink" viewBox="0 0 246 370.27"><defs><style>.cls-1{fill:none;}.cls-2{clip-path:url(#clip-path);}.cls-3{fill:#fbbe2a;}.cls-4{fill:#1874ab;}.cls-5{fill:#fff;}.cls-6{fill:#ffb7c5;}</style><clipPath id="clip-path"><rect class="cls-1" x="-142" y="-28" width="792" height="612"/></clipPath></defs><title>jccuvic_logo</title><g class="cls-2"><path class="cls-3" d="M126.8,73c-4-.07-16.35.34-20.38.6L79.64,75.34c-1.39,0-3.58.39-3.58,1.83v53.56c.18,17,3.5,29.08,14,42.21,7.35,9.22,20,17.9,32.1,17.9s45.89-15,45.89-60.11c0-7.2,0-43.3,0-53.57,0-1.44-3.4-1.94-4.79-1.94l-15.05-1.33Z"/><path class="cls-4" d="M121.12,191.56c-10.53-.37-49.48-12.41-45.65-71.93,6.29-3.06,34.84-18.52,38.42-20.5a2.34,2.34,0,0,1,1.24-.29,29.87,29.87,0,0,0,5.14,0c2.45-.26,3.93-1.66,4.79-1.66,1.7,0,3.36,1.42,4.75,2.23,3.52,2.07,7.05,4,10.48,6.27,3.72,2.42,7.41,4.89,11.14,7.3,5.18,3.36,10.52,7,16.28,9.24,2.84,44.51-23.76,66.87-46.59,69.36"/><path class="cls-5" d="M109.85,134.18a60.77,60.77,0,0,1,11.11.22c2.13.31,1.63,2.88,1.09,4.31a8,8,0,0,1-1.28,2.3c-1,1.15-2.39,1.74-3.57,2.63-2.91,2.19-5,5-5.34,8.65-.59,5.8-4.93,12.83-1.36,17.49.21.28.61.12,1,.18a10.32,10.32,0,0,0-.57,2.4c.25.35.85.08,1.28.12-.08.27-.44,3.09-.43,3.17.06.33.67-.11,1-.17-.12.49-.66,1.07-.35,1.47s.67,0,1,0c0,.68-.67,1.62-.14,2,.33.26.81-.23,1.21-.35,0,.74-.73,1.85-.09,2.22,1.4.79,1.65.17,2.13.9.63,1,1.26,1.93,1.85,2.92a17.38,17.38,0,0,1,2.56,6.82c.09.81.19,1.61.3,2.41l2.86,0a18.09,18.09,0,0,1,.55-3.05l.29,0a3.36,3.36,0,0,1,.25.4c.41.9.8,1.81,1.21,2.72l1.4,0a9.72,9.72,0,0,1,1.69.23c.07-1.09.29-2.16.45-3.25l.44-.26a6.48,6.48,0,0,0,.48.89c.92,1.22,1.85,2.44,2.79,3.65q3.88-1.41,7.74-2.86l-.1-.21c-.2-.41-.72-.71-.82-1.13-1-4.1-1.84-8.22-2.75-12.33a33.76,33.76,0,0,0-5.91-13.65c-2-2.54-4.33-4.41-7.61-4.83-1.64-.21-3.3-.33-4.93-.59a4.13,4.13,0,0,1-3.54-3.38,8.59,8.59,0,0,1,3.33-9.77,24.22,24.22,0,0,0,5.67-5.49c.53-.78,1-1.58,1.63-2.5l2.38,6.63a.58.58,0,0,0,.13-.53,31.32,31.32,0,0,1-.79-10.79,5.47,5.47,0,0,0-1.46-4.27,6.09,6.09,0,0,0-2.27-1.63,5.39,5.39,0,0,0-4.46.06,23.25,23.25,0,0,0-4.15,2.44,11.56,11.56,0,0,1-3.73,1.67c-2.77.71-5.6,1.19-8.4,1.78a8.69,8.69,0,0,0-1,.35c2.47.08,4.88,0,7.3-.11"/><path d="M168.52,121.64c0-13.26,0-34.87,0-43.76a2.57,2.57,0,0,0-2.3-2.55L162.86,75A378.64,378.64,0,0,0,79,75.08l-2.17.24h0a2.58,2.58,0,0,0-2.29,2.57v42.67a113.9,113.9,0,0,0,.23,17c.72,11.05,3.19,19.78,8,28.06a55.15,55.15,0,0,0,7.57,10.72,51.56,51.56,0,0,0,6.51,6c7.07,5.73,16,10.14,24.74,10.14,11.41,0,43.42-13.6,46.6-54.44.54-5,.28-16.47.28-16.47m-46.18,68.9-.69,0a27.42,27.42,0,0,1-6.06-.73,44.9,44.9,0,0,1-7.54-2.65A52.32,52.32,0,0,1,90.32,173c-9.71-12.18-13.57-23.84-13.76-41.6V120c7.58-3.79,34.54-18.4,37.73-20.16a1.54,1.54,0,0,1,.8-.18l.61,0a27.25,27.25,0,0,0,4.65-.06,10.28,10.28,0,0,0,3.74-1.24,4.48,4.48,0,0,1,1-.42,6.94,6.94,0,0,1,3.29,1.47c.35.23.7.46,1,.65l2.46,1.43c2.64,1.53,5.37,3.11,8,4.82l5.1,3.35q3,2,6,4l1.32.86a92.72,92.72,0,0,0,14.25,8.1c0,4,0,7.2,0,8.82a76.41,76.41,0,0,1-1.86,17.09c-6.24,24.77-23.86,39.42-42.35,42M77.1,77.29,79.27,77a376.68,376.68,0,0,1,83.37-.12l3.37.37a.59.59,0,0,1,.54.59c0,8.71,0,29.59,0,42.91a95.89,95.89,0,0,1-13.33-7.67l-1.33-.86q-3-2-6-4-2.55-1.68-5.11-3.35c-2.65-1.73-5.4-3.32-8.06-4.86l-2.45-1.43c-.31-.18-.63-.39-1-.61a8.07,8.07,0,0,0-4.22-1.74,4,4,0,0,0-1.73.6A8.68,8.68,0,0,1,120.18,98a25.92,25.92,0,0,1-4.39.05l-.62,0a3.23,3.23,0,0,0-1.69.39c-3.08,1.7-28.48,15.47-36.92,19.75V77.89a.61.61,0,0,1,.54-.6"/><path class="cls-5" d="M137.43,114.94h-.26a18.71,18.71,0,0,1-5.23-.73c-3.37-1-6.57-2.16-10-3.34l2.39,4.78h0a54.2,54.2,0,0,1-10.47-4,12.25,12.25,0,0,1-4.14,4.3,5.67,5.67,0,0,0-1.06-3.55c-4.14,2.22-8.49,4.23-13.13,4.92h0c2.23-2.13,4.69-4.58,6.92-6.71-1.69.56-2.86,1-4.83,1.48a11.55,11.55,0,0,1-2.24.38,9.09,9.09,0,0,1-3.79-.31c.55-.38,13.58-7.72,19.18-10.93a11.45,11.45,0,0,1,3.54-1.53c2-.36,4.12.35,6.06-.24,1.37-.42,2.56-1.45,4-1.49a4.19,4.19,0,0,1,1.77.22c1.39.57,6.57,3.8,7.85,4.58,5.41,3.26,7.3,4.5,12.48,8a63.71,63.71,0,0,1-8.85-2.29,18.72,18.72,0,0,1,.71,3.41q-4.46-1.17-8.88-2.46a13.33,13.33,0,0,0,4.84,4.07c1.24.65,2.23,1.09,3.11,1.48"/></g><g class="cls-2"><path d="M123.24,191.9a32.36,32.36,0,0,0-5,.81c-1.36.3-3,.47-4.1,1.34a5.52,5.52,0,0,0-1.58,2.34c-.39.34-.76.68-1.12.94a3.27,3.27,0,0,1-2.22.76,2,2,0,0,0-1.24.21.13.13,0,0,0,0,.23,6.85,6.85,0,0,0,3.42.1,14.09,14.09,0,0,1-2.23,2.92.07.07,0,0,0,0,.11c1.26,1,3.36-2,3.91-2.91a8.77,8.77,0,0,0,.53-1.1,2.85,2.85,0,0,0,1.62-1.82.64.64,0,0,0-.07-.4,7.54,7.54,0,0,1,2.13-1,52.15,52.15,0,0,1,6-1.24.64.64,0,0,0-.17-1.26"/><path d="M178.6,138.37c-1.61-1.28-4.51,2-5.42,3.09a20.91,20.91,0,0,0-2.47,3.88c0-.66,0-1.31,0-2a24.07,24.07,0,0,0-.15-6,.18.18,0,0,0-.34,0,24.21,24.21,0,0,0-.65,6,47.27,47.27,0,0,0-.2,4.81c-.43,1-.86,2-1.3,3a23,23,0,0,1-3.07,5.33c-.58.72-1.24,1.37-1.88,2a14.44,14.44,0,0,0-1-6.27,29.77,29.77,0,0,1-1.68-5.28c-.36-2.1,0-4.22-.36-6.29a.12.12,0,0,0-.21,0c-1.51,2.52-1,6.22-.18,8.91a42.33,42.33,0,0,1,1.6,5.5,31.36,31.36,0,0,1-.13,5.76c-1.79,2.81-1.29,5.91-1.18,9.13l0,.09a8.92,8.92,0,0,1-3.2,3.85,14,14,0,0,0-2.83,2.44,22.08,22.08,0,0,0-1.94,3.34,2.06,2.06,0,0,0-.39-.23,7.46,7.46,0,0,0,.57-1.24,1.88,1.88,0,0,0-1.93-2.3,8.65,8.65,0,0,0,1-1.19,2.94,2.94,0,0,0-.48-4c-.19-.16-.54,0-.38.29,2.25,3.24-3.26,4.67-2.53,7.21-.26.43-.51.87-.79,1.29a9.87,9.87,0,0,1-1,1.16c-.26.29-.62,1-1,1.11a.72.72,0,0,0-.45.51,3.72,3.72,0,0,0-.57.63.42.42,0,0,0,.15.58c-.2.14-.38.3-.56.45a1,1,0,0,0-1-.24c-2.06.59-4.14.34-6.16.94-.66.2-.89.86-1.53,1.12a11.33,11.33,0,0,1-4.09.51,11.92,11.92,0,0,0-4.55.87c-2.84,1.13-5.38,1.36-8.29,2a.26.26,0,0,0-.19.18c-2-.75-3.88-1.57-5.78-2.42a24.84,24.84,0,0,0-4.86-3.64c-.25-.14-.61.15-.42.42s.46.64.7,1c-1.31-.53-2.68-.88-4-1.55a26.17,26.17,0,0,1-5.28-3.91,13.4,13.4,0,0,0-2.82-2,5.06,5.06,0,0,0,.41-2.39,9.44,9.44,0,0,0-.66-2.47c-.14-.76-.36-1.51-.51-2.26-.06-.47-.1-.94-.13-1.42a4,4,0,0,1,.1-.83.33.33,0,0,0-.48-.37c-1.28.6-1.45,1.76-1.26,3.1.12.87.42,1.69.5,2.57a15.14,15.14,0,0,1-.17,3.36,5.48,5.48,0,0,0-.83,0c-2.72-1-5.69-2.05-7.52-4a3.08,3.08,0,0,1-1.12-3.19c.11-.62.41-1.2.49-1.84a4.79,4.79,0,0,0-.11-1.76,33.82,33.82,0,0,0-1.39-9.11,24.55,24.55,0,0,1-.57-2.62c.21-1.15.46-2.3.7-3.47.43-2,1.32-4,1.63-6h0a.27.27,0,0,0-.49-.21,23.84,23.84,0,0,0-2.28,5.48c-.09-1.56-.13-3.13-.2-4.72a.46.46,0,0,0-.9-.12,19.17,19.17,0,0,0-.35,10.07c0,.14.07.28.1.42a5.9,5.9,0,0,0,.22,1.67.57.57,0,0,0,.33.38c.18.61.36,1.21.52,1.82-.18-.27-.37-.53-.56-.8a.36.36,0,0,0,0-.25c-1.09-2-2.65-3.61-3.6-5.75a46.26,46.26,0,0,1-2.39-7.93c-.64-2.65-1.63-5.33-2.31-8-.17-1.28-.32-2.56-.46-3.85a11.25,11.25,0,0,1,.41-3.86,48.77,48.77,0,0,1,2.74-5.57c1.77-3.53.71-8.83,4.36-11.29a.1.1,0,0,0-.08-.18c-4.73,1.06-4.1,7.39-5.87,11-.77,1.55-1.7,3.07-2.33,4.7a33.22,33.22,0,0,1-.75-9.34A.3.3,0,0,0,70,118c-1.17,2.72-.69,5.48-.08,8.24-.21-.29-.41-.58-.6-.87-1.07-1.67-1.77-3.39-3.19-4.8a.43.43,0,0,0-.71.41,11.47,11.47,0,0,0,2.32,4,46.83,46.83,0,0,1,2.86,4.4l.08.45A11.7,11.7,0,0,0,70.6,132a13.2,13.2,0,0,0,0,1.84c0,.26,0,.51,0,.77s-.05.27-.09.4a.37.37,0,0,0,.11.41,36.09,36.09,0,0,0,.73,5.45,7.44,7.44,0,0,1-2.65-1A8.29,8.29,0,0,1,66.78,138c0-1.08-1-1.8-1.86-2.31a9.11,9.11,0,0,1-2.38-2c-.4-1-.86-2-1.25-3a9,9,0,0,1-.24-5.33.19.19,0,0,0-.37-.1,12.89,12.89,0,0,0-.73,3.42l-.48-1c-.07-.14-.12-.28-.18-.42s0-.39,0-.6a12.57,12.57,0,0,1,.88-3.31A13.64,13.64,0,0,0,62.78,118a3.18,3.18,0,0,1,.29-.39,5,5,0,0,1,3.37-1.67.22.22,0,0,0,.11-.4,2.81,2.81,0,0,0-3,.33,58,58,0,0,1,3-5.3c.12-.18.22-.36.32-.54.52-.31.91-.81,1.44-1.13a11.88,11.88,0,0,0,1.77-1.16c1.19-1,2.72-2.12,3.42-3.52a.18.18,0,0,0-.15-.27c-1.75,0-2.8,1.44-3.83,2.71a14.12,14.12,0,0,1-1.82,1.67,22.68,22.68,0,0,0,1.16-4.43,20.2,20.2,0,0,1,2.69-7.4c1.57-2.39,4.41-3.15,6.14-5.36,1.43-1.84,1.83-4.2,3-6.18.05-.09.12-.17.18-.26,1.42-.24,2.82-.56,4.27-.67,1.64-.12,3.31-.13,4.93-.41,2.5-.43,5.59-1.46,6.77-3.89.06-.12-.08-.31-.21-.21a16.92,16.92,0,0,1-9,3.35,41.32,41.32,0,0,0-6,.68,30,30,0,0,1,3.09-3c2.63-2.32,5.91-5.38,5.51-9.27,0-.16-.24-.21-.29,0-1.17,4.48-4.79,6.88-8.08,9.87a16.83,16.83,0,0,0-2.09,2.24A20.3,20.3,0,0,0,79,78.56a.18.18,0,0,0-.34,0,13.46,13.46,0,0,0,0,4.06,15,15,0,0,1-.36,3.74c-.88,2.15-1.52,4.17-3.54,5.75a24.55,24.55,0,0,0-3,2.72,13.27,13.27,0,0,0,.09-1.59,2.87,2.87,0,0,0-.95-2.49c-1.13-.89-2.74.61-1.62,1.62a4.81,4.81,0,0,1,.87,1.51,8.87,8.87,0,0,1,.7,2A15.59,15.59,0,0,0,68,102.46c-.14.65-.26,1.27-.39,1.87-.1-1.89,0-4.1-.66-5.8a.34.34,0,0,0-.57-.15c-1.13,1.25-.39,2.3,0,3.82a15.57,15.57,0,0,1,.34,5.54,13.73,13.73,0,0,1-1,2.23A57.64,57.64,0,0,0,63,115.23a16.54,16.54,0,0,0-3.36-7.63c-.08-.11-.29-.05-.24.1.37,1.1.91,2.11,1.29,3.2a9.74,9.74,0,0,1,.24,5.31c-.42,2.29-1.62,4.26-2.25,6.45a6.51,6.51,0,0,0-.39.8c-.39-2.11-.73-4.22-2.1-6a24.35,24.35,0,0,1-3.12-4.3A51.49,51.49,0,0,1,50.64,107c-.56-1.73-.58-3.73-1.25-5.39-.34-.84-.64-1.25-1.53-1.38a.13.13,0,0,0-.14.18c.84,1.63.8,3.52,1.25,5.28a40.28,40.28,0,0,0,2,5.63,19.42,19.42,0,0,0,2,3.94c.72,1,1.57,1.81,2.31,2.71l-1.82-.59c-1.81-.61-2.55-1.78-3.68-3.16a24.14,24.14,0,0,0-6.39-5.4.14.14,0,0,0-.17.22c2.29,2.34,4.3,5,6.4,7.49,1.89,2.24,3.93,2.09,6.48,3.1a.49.49,0,0,0,.3,0,6.35,6.35,0,0,1,.32.78c.59,1.73.43,3.59.83,5.35l0,.16c-.06.42-.1.83-.12,1.2a9.27,9.27,0,0,0,3.26,7.62,8.37,8.37,0,0,1-3-1,.06.06,0,0,0-.08.06c.32,1.15,1.05,1.57,2.17,1.93.89.29,1.86.28,2.74.59a4.35,4.35,0,0,1,.48.2,16.29,16.29,0,0,0,2,1.78c.19.25.38.51.59.77,1.46,1.83,3.72,3.46,6.13,3.52.2.87.41,1.75.62,2.63s.52,2,.84,3.06A23,23,0,0,0,66.76,147c-.1-.14-.2-.27-.3-.42a7,7,0,0,1-.78-1.49c-.38-1.07-.43-2.24-1.37-3s-2.65.26-1.82,1.41a32.39,32.39,0,0,1,2.32,2.7c.1.17.2.38.32.59a8.2,8.2,0,0,1-2.62-.82,21.85,21.85,0,0,0-3.22-1.6,10.38,10.38,0,0,1-1.32-.61,36.39,36.39,0,0,1-2.07-3.24c-.82-1.73-1.33-3.62-2.05-5.39-.05-.13-.26-.13-.26,0a20.89,20.89,0,0,0,1.12,6.16l-.27-.24c-1.93-1.71-3.85-2.75-6.39-1.77-.27.1-.26.54.07.53,3.17-.07,5.2,2.89,7.46,4.61,1.81,1.37,4.1,1.89,6.05,3,1.78,1,3.68,1,5.69,1.1,3.1.18,5.22.8,7.09,3a24.73,24.73,0,0,0,1.85,3.55c1.18,1.85,2.59,3.43,3.86,5.14a30.16,30.16,0,0,0-3.6-1.74c-2-.87-4.43-2-6.34-.5-.33.26,0,.68.37.63,2.13-.35,3.71.56,5.56,1.48,1.41.7,3.18,1.31,4.28,2.49A8.16,8.16,0,0,1,82.3,166c0,.23,0,.45,0,.68a.94.94,0,0,0,.11.39,3.49,3.49,0,0,1-.06.66c-.15.76-.43,1.41-.55,2.12a12.36,12.36,0,0,0-3.45-3.28c-.16-.09-.36.14-.21.27,1.59,1.28,2.25,2.94,3.26,4.63a11.71,11.71,0,0,0,1.15,1.62,12.2,12.2,0,0,0-1.53-.39,2.43,2.43,0,0,0-2.38,1.07c-.65.91.88,1.82,1.51.88.35-.52,1.51-.62,2.08-.65a3.6,3.6,0,0,0,1-.21,3.43,3.43,0,0,0,.44.3,10.31,10.31,0,0,0,1.34,1,34.42,34.42,0,0,0,5.36,2.64,5.72,5.72,0,0,0-1.27.15,25.35,25.35,0,0,1-4.9,1.17c-.29,0-.4.48-.07.55a11.49,11.49,0,0,0,5-.5c1.26-.28,2.83.11,4.16-.15,2.59,2.21,5.2,5.09,8.14,7a11.72,11.72,0,0,1-1.64-.37c-2.1-.67-4-1.89-6.11-2.49a16.06,16.06,0,0,0-6-.6c-.21,0-.31.37-.05.41a34.48,34.48,0,0,1,5.8,1.23c2.11.73,3.78,2,5.73,3,3,1.55,6.51,1.09,9.72,2a.36.36,0,0,0,.36-.13,27.85,27.85,0,0,0,3.89,2,12,12,0,0,0,8,.87.56.56,0,0,0,.46-.62c.38,0,.77,0,1.2,0,1.71-.12,3.09-.92,4.71-1.24a20.78,20.78,0,0,1,4.6,0,1.57,1.57,0,0,0,.13,1,1.73,1.73,0,0,0,.24.37,8.26,8.26,0,0,1-3.18-.1.06.06,0,0,0-.06.09l0,.06a8.21,8.21,0,0,0-2.86-.21c-.23,0-.38.35-.13.47a34.6,34.6,0,0,0,5,1.63c1.18.4,2.37,1,3.6,1.4.7.46,1.43.88,2.16,1.31a6.11,6.11,0,0,0,3.24,1.15.17.17,0,0,0,.12-.29,9.41,9.41,0,0,0-2.84-1.75l-.14-.08a16.58,16.58,0,0,0,7.3-2,.23.23,0,0,0-.11-.42c-3.14.06-6.33,1.85-9.45.9l-.33-.11-.4-.28a.45.45,0,0,0-.46,0l-.91-.35a8.45,8.45,0,0,0,1.17-.39,20.29,20.29,0,0,1,2.46-1.11,11.86,11.86,0,0,1,3.46-.07,15.15,15.15,0,0,0,4.23-.7c2.22-.56,4.53-1,6.64-.14a1.41,1.41,0,0,0,1,.53,4,4,0,0,0,2.62.73c2.18.09,5.21,2.41,7,.27a.16.16,0,0,0-.15-.27c-1.83.49-3.16-.2-4.88-.66-.91-.24-1.79-.22-2.63-.4l.5-.15c1.42-.42,3.33-1.12,4.28-2.31a.15.15,0,0,0-.07-.25c-.9-.33-1.83.42-2.63.76a11,11,0,0,1-3.95,1.06c-1.76-1.12-3.17-1-5.43-.67-1.38.19-2.66.58-4,.9a8.8,8.8,0,0,1-3.26,0c.32-.21.63-.42.9-.61,1.49-1.05,4.23-4.32,6.26-4.45,2.6.8,4.79-1.12,6.13-3.28.7-1.12,1.26-2.22,1.93-3.24,1.64-.34,3.49.28,5.1-.51,1.8-.89,2.92-2.68,4.75-3.62.28-.14.11-.5-.15-.53-2.1-.27-3.35,2-5,2.87a10.55,10.55,0,0,1-3.75.58,8.71,8.71,0,0,1,1.44-1.34,13.85,13.85,0,0,0,3.26-2.74,6.5,6.5,0,0,0,.75-1.47.59.59,0,0,0,.41-.45c.07-.31.12-.62.16-.93a4.25,4.25,0,0,1,1-1.38c1.35-1.25,3.36-1.7,5-2.52,2.52-1.27,4.77-3.73,4.54-6.73a.56.56,0,0,0-1.09-.15c-.59,2.08-1.1,3.82-3,5.1a23.58,23.58,0,0,1-3.51,1.7,10.39,10.39,0,0,0-2.75,1.72c0-2.43-.19-4.74,1.68-6.94a64.46,64.46,0,0,0,4.21-5,7,7,0,0,0,1.11-.1,18.68,18.68,0,0,0,2.27-.29,1.41,1.41,0,1,0-1.37-2.36c-.32.28-.56.52-.84.73,1.34-2.73,2.17-5.69,3.55-8.39a17,17,0,0,1,2.63-3.89c.62-.67,3.08-2,3.25-2.48,0,.09.07.15.14.11.29-.14.29-.15.42-.45a.41.41,0,0,0-.11-.42m-30.32,44.76a6.41,6.41,0,0,0,.89-.63,10.19,10.19,0,0,0,1.52-1.6c.47,1.13-1,1.81-2.41,2.23"/><path class="cls-5" d="M109.92,86.62a22,22,0,0,0-4.3-4.4c-.11-.07-.23.07-.17.17,1,1.91,2.59,3.64,3.81,5.46a40,40,0,0,0,3.31,4.39c.64.71,1.6-.31,1-1-1.22-1.53-2.42-3.1-3.68-4.59"/><path class="cls-5" d="M121.46,79.77a59.24,59.24,0,0,0-.41,11c.06.63,1.06.89,1.2.16a35.38,35.38,0,0,0-.09-11.25c-.06-.43-.66-.27-.7.09"/><path class="cls-5" d="M137.49,84.62c-2.69,2.81-6.12,4.91-8.46,8.05-.52.69.64,1.59,1.2.93,1.27-1.49,2.61-2.9,4-4.3s2.89-2.59,3.71-4.34c.13-.27-.2-.58-.44-.34"/><path class="cls-5" d="M145.9,91.59A67.29,67.29,0,0,0,136.34,98c-.56.42,0,1.38.56,1,3.13-2.24,6.46-4.3,9.47-6.71.36-.29-.1-.79-.47-.61"/><path class="cls-5" d="M105.43,96.37a41.35,41.35,0,0,1-5.06-2.78c-1.61-1-3.08-2.31-4.77-3.17-.11-.06-.26.06-.18.18,2.15,3.1,6.08,5.21,9.27,7,.84.49,1.6-.89.75-1.28"/><path class="cls-6" d="M158.32,176.93c-.77-.7-2.64.42-2.64.42,0-.23.55-1.11.53-1.33s-.58-1.58-1.28-1.27-.64,1.9-.6,2.78a6.92,6.92,0,0,0-1.12-1.22.62.62,0,0,0-.28-.09c-.29-.48-.71-.93-1.2-.71-.85.39-.78,2.33-.74,3.41a8.43,8.43,0,0,0-1.38-1.5c-.57-.4-2,.28-1.91.77a3.82,3.82,0,0,0,.88,1.53c.36.36.87.15,2.08.48,0,0-2.42.5-2.26,1s-.37,1.27-.22,1.47.32.22.92.52.82.34,1.4-.18a5.43,5.43,0,0,0,1.06-1.38c.19,2.35,1.54,2.51,2,2.29s.34-.9.5-1.38.23-.35-.52-1.43a1.55,1.55,0,0,0,.32-.21,3.3,3.3,0,0,0,1.34.21,1,1,0,0,0,1.22.49c.39-.18.28-.73.41-1.13s.19-.29-.43-1.17a1.84,1.84,0,0,0,.13-.22,2,2,0,0,0,1.51.14c.32-.24.35-.84.62-1.28s.39-.35-.38-1m-5.68,1.77a1.15,1.15,0,0,1,.11-.33l.42.06c-.31.15-.52.27-.52.27M79,166.86a8.06,8.06,0,0,1-2.14.65c-1.45.28-4.08-1.84-3.74-2.47.83-1.09,3.22-.76,3.76-.32S78,166.16,79,166.86M51.82,102.1c-.42.37-1.32.77-2,1.42a5.35,5.35,0,0,1-.41-1.62c-.13-1.09,1.87-2.89,2.39-2.6.88.69.43,2.42,0,2.8m4.41,15.06c-.47,0-1.35-.88-1.65-1.69-1.08,1.69-1.15,1.86-2.36,1.59-.4-.14-.13-1,.2-1.45a5.56,5.56,0,0,1,1-.84c-1,.24-1.18.24-1.49.1s-1.08-1.08-1.28-1.18,1-1,1.49-.78a10.23,10.23,0,0,1,1.32.91l.51.3c-.27-.94-1-1-1.18-1.48s.41-1.28.57-1.35,1.28,0,1.52.37a2.61,2.61,0,0,1-.23,1.75l.47-.63a8.5,8.5,0,0,0,1.79-.54c.2-.2.34.95.1,1.21a7.34,7.34,0,0,1-1.69,1c1.18.47,1.55,1.22,1.45,1.82s-.07.84-.54.84m101.26,76.51c0,1-1.13,1.76-2.47-.18a2.36,2.36,0,0,1-.26-.67c0,1.59-.68,1.83-1.72,2a1.89,1.89,0,0,1-.56-2c.09-.5,2.21-1.2,2.21-1.2,1.26.12,2.82,1,2.8,2M69.17,99.93c.56.49,1.3-1.11,1.39-1.08s.09.9.31,1.3.83.12.9.46.71-.28.37-1.08a10.91,10.91,0,0,1-.46-1.27c.93.71,1.73.56,1.79.19a1.81,1.81,0,0,0,0-1.07c.14-.53.25-.81.25-.81.33,1.12,1.07,1.47,1.34,1.21s.79-.61.65-1.1-.35-.83-1.32-1.08c1.39-.28,1.73-.38,1.7-1.17,0-.31-.61-.43-1.31-.41a1.39,1.39,0,0,0-1.07.78A10.94,10.94,0,0,0,74,93.42c0-.52-.13-.76-.46-.84s-.88,0-1.06.87a1.83,1.83,0,0,0,.21,1.38c-.77-.26-1.11-.47-1.62-.3s-.88.27-.9.6.29.52.48,1a1.76,1.76,0,0,0,0,.68A11,11,0,0,0,70,95.58c-.28-.44-.56-.53-.86-.41s-.68.56-.34,1.33a1.83,1.83,0,0,0,1,1c-.77.25-1.17.28-1.48.71s-.56.74-.37,1,.68.22,1.24.71m2.47-2.84c.22-.24.4-.44.54-.61s.31-.12.33-.1-.1.26-.24.52a3.08,3.08,0,0,0-.63.19m-.15,41.38c0,.56-1.48.85-1.93.89,1.22.92,1.22,1.63,1,2-.55,0-.59.22-.82.11a7.32,7.32,0,0,1-.89-1.44c-.37,1.07-.41,2.44-1.63,2.11,0-.78-.67-1.41-.18-1.67a3.63,3.63,0,0,0,.89-.74c-.89.41-2,.41-2.22-.26s-.44-1.07.74-1a7.9,7.9,0,0,0,1.59,0c-1.22-1.19.41-2.3.41-2.3a2.47,2.47,0,0,1,.52,2.15c.63-.74.44-1,1-.85s1.41.44,1.44,1m98.29,25.71c0,.56-1.48.85-1.93.89,1.22.92,1.22,1.63,1,2-.56,0-.59.22-.82.11a7.32,7.32,0,0,1-.89-1.44c-.37,1.07-.41,2.44-1.63,2.11,0-.78-.67-1.41-.19-1.67a3.61,3.61,0,0,0,.89-.74c-.89.41-2,.41-2.22-.26s-.44-1.07.74-1a7.89,7.89,0,0,0,1.59,0c-1.22-1.18.41-2.3.41-2.3a2.47,2.47,0,0,1,.52,2.15c.63-.74.44-1,1-.85s1.41.44,1.44,1m-65.11,19.39c0,.65-1,2-3.75.83a6.85,6.85,0,0,1,.87,2c.22,1,0,1.17-.65,1.65s-.83.65-1.13.7-.83-1-1.48-1.13.26-3.09.26-3.09c-1.09,1.13-1.18,1.83-1.79,2a4.8,4.8,0,0,1-2.22,0c-.61-.17-.48-2.18.31-2.57a10.57,10.57,0,0,1,2.48-.61c-1.22-.61-3.4-1.7-3.31-2.87s2.35-.92,2.66-.79,1.09,1.52,1.39,1.7c0,0-.13-3.36,1.39-3.88s1.31-.44,1.7.26,1.18,1.18,1.26,1.79-1.13,2.09-2.09,2.4c2.7-.31,2.44-.31,2.88.17s1.26.74,1.22,1.39m19.69,7.63c-.43-.48-.17-.48-2.87-.17,1-.3,2.18-1.79,2.09-2.39s-.87-1.09-1.26-1.79-.17-.78-1.7-.26-1.39,3.88-1.39,3.88c-.31-.17-1.09-1.57-1.39-1.7s-2.57-.39-2.66.78a1,1,0,0,0,0,.3c-.57.17-.29.66-.76,2.07a4.49,4.49,0,0,0-2.33-3.28,4.26,4.26,0,0,0-.67,2.18c0,.05,0,.11,0,.17a2.16,2.16,0,0,0-1.12-1.58s-1,1.43.42,2a6.76,6.76,0,0,1-1.29.52c-1,.33-.64.57-.28,1.06s1.3.11,1.89-.51a3.16,3.16,0,0,1-.48.89c-.12.14-.07.27,0,.42l-.28.09c-2.05.68-1.34,1.19-.57,2.19s2.71.22,3.93-1.07a6.58,6.58,0,0,1-1,1.85c-.64.76,1,1.35,1.44,2.69,2.11-.24,1.54-2.25,1.36-4.18a.44.44,0,0,0,.24.24,3.33,3.33,0,0,0,.7.1,5.61,5.61,0,0,0,1.5,1c.45,0,.34-.43,1.3-.74a1.72,1.72,0,0,0-.44-1.24,8.54,8.54,0,0,1,.94-1.17s-.91,3-.26,3.09,1.18,1.17,1.48,1.13.43-.22,1.13-.7.87-.7.65-1.65a6.85,6.85,0,0,0-.87-2c2.7,1.22,3.7-.17,3.74-.83s-.78-.91-1.22-1.39m-12.49,1.2s.38.33.71.59l-.63.27c0-.28-.07-.58-.09-.86m5.24.27c.25-.17.51-.37.75-.57l.63.32s-.68.09-1.38.25m-57-45.87c.78.19,1.91.92,3.21,1.19a9.16,9.16,0,0,1-1.89,1.7c-1.36,1-5.09.08-5-.74.33-1.53,2.95-2.34,3.72-2.15m104.71,6.87c-.36.44-1.18.94-1.76,1.7a6.56,6.56,0,0,1-.51-1.74c-.21-1.18,1.52-3.3,2-3,.88.69.59,2.62.23,3.06m-99.17-25c-.28-.23,1.91-1.18,2.64-.67S69.32,129.29,70,130l.69.67c-.07-1.59-1.18-1.91-1.31-2.79s1.12-1.87,1.41-1.92,2,.48,2.26,1.15a4.24,4.24,0,0,1-1,2.68l1-.83a13.8,13.8,0,0,0,3-.18c.4-.24.18,1.62-.29,2a12,12,0,0,1-3.05,1c1.69,1.19,2,2.5,1.61,3.42s-.42,1.31-1.17,1.13-1.8-1.89-2-3.28c-2.33,2.26-2.5,2.5-4.32,1.62-.59-.36.18-1.7.86-2.22a9,9,0,0,1,1.91-1c-1.69,0-2-.07-2.38-.4s-1.3-2.11-1.59-2.34m.9-13.38c.42-1.32,1.74-2.76,2.8-2.5s1.61,1.61-.76,2.59a3,3,0,0,1-.73.12c1.66.38,1.75,1.15,1.71,2.3a2.07,2.07,0,0,1-2.25.13c-.51-.21-.76-2.63-.76-2.63m108.91,28.81a3,3,0,0,1-.74-.12c1.44.9,1.28,1.65.87,2.73a2.07,2.07,0,0,1-2.17-.61c-.41-.37.13-2.74.13-2.74.83-1.11,2.54-2,3.46-1.46s1,2-1.56,2.2M94.86,171c.28-.91,1.18-1.92,1.91-1.76s1.13,1.1-.51,1.8a1.76,1.76,0,0,1-.53.09c1.17.24,1.25.78,1.23,1.58a1.43,1.43,0,0,1-1.55.11c-.35-.14-.55-1.81-.55-1.81m-13.44-22c.7.54.32,1.57.22,2.21s-1.51.92-3.13-.32a18.73,18.73,0,0,0,.81,2.21c.59,1.4-.54,2.48-.65,1.89s-1.19-.11-1.56-.81-.38-2.21-.54-2.27-1.46,2.75-2.43,1.89-1.83-.76-2.16-1.24.11-1,.65-1.78,1.24-.81,2.59-1.24a3.2,3.2,0,0,1-1.73-1.73c-.59-1.35.05-2.11.59-2.32s1-.05,1.51.71a19.29,19.29,0,0,1,1.08,2.2,2.43,2.43,0,0,1,.7-2.2c1-.74,1.94-1.2,2.27-.77.86,1.08.49,1.56-1.19,3.4,1.62-.65,2.27-.38,3,.16m60.09,39.1a2.86,2.86,0,0,0-2.62.24,2.75,2.75,0,0,0,1.26-1.35,4.29,4.29,0,0,0,.64-1.58,1.5,1.5,0,0,0-.63-1.49.81.81,0,0,0-.81,0,2.83,2.83,0,0,0-.34.3c-.53.46-1.39.34-1.93.78s-.52,1.6-.3,2.45a1.75,1.75,0,0,0-.4-.79,1.17,1.17,0,0,0,.18-.64c-.09-.64-.91-1.14-1.32-1.86s-.18-.82-1.77-.27-1.46,4-1.46,4c-.32-.18-1.14-1.64-1.45-1.77s-2.68-.41-2.77.82,2.18,2.36,3.46,3a11.06,11.06,0,0,0-2.59.64c-.82.41-1,2.5-.32,2.68a5,5,0,0,0,2.32,0c.64-.18.73-.91,1.86-2.09,0,0-1,3.09-.27,3.23s1.23,1.23,1.55,1.18.45-.23,1.18-.73.91-.73.68-1.73a4.36,4.36,0,0,0-.48-1.29,2.5,2.5,0,0,0,1-.35,3.1,3.1,0,0,0,1,0q0,.55.09,1.09c0,.35.15.76.49.88a.78.78,0,0,0,.39,0,1.7,1.7,0,0,0,1.19-2.28,2,2,0,0,0-.17-.28,2,2,0,0,0,1.4.35c.95-.14,1.69-.93,2.64-1.1a2.87,2.87,0,0,0-1.67-2m-7.12.38a2.16,2.16,0,0,0,.44-.21l.27.13-.71.08"/></g></svg>